IKResults
version=1
nRows=9
nColumns=63
inDegrees=yes

Units are S.I. units (second, meters, Newtons, ...)
If the header above contains a line with 'inDegrees', this indicates whether rotational values are in degrees (yes) or radians (no).

endheader
time	pelvis_tilt	pelvis_list	pelvis_rotation	pelvis_tx	pelvis_ty	pelvis_tz	hip_flexion_r	hip_adduction_r	hip_rotation_r	knee_angle_r	knee_angle_r_beta	ankle_angle_r	subtalar_angle_r	mtp_angle_r	hip_flexion_l	hip_adduction_l	hip_rotation_l	knee_angle_l	knee_angle_l_beta	ankle_angle_l	subtalar_angle_l	mtp_angle_l	L5_S1_Flex_Ext	L5_S1_Lat_Bending	L5_S1_axial_rotation	L4_L5_Flex_Ext	L4_L5_Lat_Bending	L4_L5_axial_rotation	L3_L4_Flex_Ext	L3_L4_Lat_Bending	L3_L4_axial_rotation	L2_L3_Flex_Ext	L2_L3_Lat_Bending	L2_L3_axial_rotation	L1_L2_Flex_Ext	L1_L2_Lat_Bending	L1_L2_axial_rotation	L1_T12_Flex_Ext	L1_T12_Lat_Bending	L1_T12_axial_rotation	Abs_r3	Abs_r2	Abs_r1	Abs_t1	Abs_t2	neck_flexion	neck_bending	neck_rotation	arm_flex_r	arm_add_r	arm_rot_r	elbow_flex_r	pro_sup_r	wrist_flex_r	wrist_dev_r	arm_flex_l	arm_add_l	arm_rot_l	elbow_flex_l	pro_sup_l	wrist_flex_l	wrist_dev_l
      4.03333333	    -11.86310768	     -8.08980567	      3.19231121	     -0.58818883	      0.92349641	     -0.30763004	     28.73235774	      6.73232595	     -1.52678309	     17.44891405	      0.30454100	      9.84098414	    -12.18053988	      0.00000000	      0.70318253	     -6.17127675	    -16.43874793	     13.03519277	      0.22750703	     29.02832424	      7.97015390	      0.00000000	      1.54951532	      0.82922328	     -0.64090026	      2.87760490	      1.10286696	     -0.68095653	      2.54569872	      2.01617348	     -0.68095653	      1.77094106	      2.01617348	     -0.56078773	      1.43887992	      1.69095211	     -0.52073146	      0.88539305	      1.28446686	     -0.48067520	     11.06803296	      9.38033958	     -3.56449499	      0.00000000	      0.00000000	     18.57700639	     -1.50562075	     -0.37531622	     -9.57376900	    -17.11930505	     37.16733477	     20.14485342	     89.99559364	      0.00000000	      0.00000000	     -2.54634623	    -10.78800823	      0.06809481	     40.25441426	     89.99559364	      0.00000000	      0.00000000
      4.06666667	    -10.97484196	     -8.70252166	      4.23598014	     -0.56522219	      0.92236215	     -0.30813025	     27.93390223	      7.48705156	     -3.30957449	     14.15613989	      0.24707125	      6.81806112	    -11.57599436	      0.00000000	     -0.82012760	     -7.28155370	    -15.85726310	     13.92731792	      0.24307755	     31.72706990	      8.82533030	      0.00000000	      1.43306204	      0.91017676	     -0.87449495	      2.66133951	      1.21053509	     -0.92915089	      2.35437762	      2.21300377	     -0.92915089	      1.63784660	      2.21300377	     -0.76518308	      1.33074141	      1.85603244	     -0.71052715	      0.81885165	      1.40986380	     -0.65587121	     10.23621882	     10.29610152	     -4.86367857	      0.00000000	      0.00000000	     19.13104483	     -2.11214554	      0.00235781	    -10.24975154	    -17.51252307	     36.86154288	     20.33952548	     89.99559364	      0.00000000	      0.00000000	     -1.19210502	    -10.56455049	     -0.40237640	     41.85559621	     89.99559364	      0.00000000	      0.00000000
      4.10000000	     -8.49511942	     -9.09349392	      5.60950574	     -0.54278214	      0.92348764	     -0.30817759	     25.55951534	      8.14222942	     -5.60249808	     12.19336965	      0.21281445	      4.79001985	    -10.40953010	      0.00000000	     -3.61980247	     -8.55336055	    -15.36297160	     15.39322352	      0.26866243	     34.34806806	      9.82137834	      0.00000000	      1.00936399	      0.97160644	     -1.13737855	      1.87448986	      1.29223656	     -1.20846471	      1.65828410	      2.36236389	     -1.20846471	      1.15360210	      2.36236389	     -0.99520623	      0.93729540	      1.98129985	     -0.92412007	      0.57675058	      1.50501837	     -0.85303391	      7.20978604	     10.99100634	     -6.32575830	      0.00000000	      0.00000000	     20.48176208	     -2.44148291	      0.39915870	    -10.01700073	    -17.64087170	     35.21279835	     20.44920659	     89.99559364	      0.00000000	      0.00000000	      0.50450024	    -10.20286278	     -1.92590906	     43.08991256	     89.99559364	      0.00000000	      0.00000000
      4.13333333	     -5.58411493	     -9.30849246	      6.53525269	     -0.51960269	      0.92571371	     -0.30727108	     22.57964647	      8.92231759	     -7.83524241	     11.25728666	      0.19647672	      3.70770584	     -8.58246047	      0.00000000	     -6.86037393	     -9.61220002	    -14.04990712	     16.93802112	      0.29562424	     36.20146646	      8.75801603	      0.00000000	      0.50463887	      1.02271333	     -1.28200502	      0.93716485	      1.36020873	     -1.36213033	      0.82907121	      2.48662520	     -1.36213033	      0.57675177	      2.48662520	     -1.12175439	      0.46860766	      2.08551703	     -1.04162908	      0.28835065	      1.58418295	     -0.96150376	      3.60458502	     11.56913778	     -7.13012731	      0.00000000	      0.00000000	     22.07180052	     -2.51718313	      0.58564757	     -9.58221327	    -17.59919709	     32.52633467	     20.46924091	     89.99559364	      0.00000000	      0.00000000	      2.07675024	    -10.04205224	     -2.69745336	     44.05581794	     89.99559364	      0.00000000	      0.00000000
      4.16666667	     -4.36880190	     -9.67239543	      7.17111561	     -0.49378063	      0.92640177	     -0.30585330	     20.89051287	      9.81285218	     -9.30460002	     10.68962267	      0.18656911	      3.00259130	     -7.73434353	      0.00000000	     -8.12656621	    -10.69096045	    -12.38552605	     18.89906815	      0.32985096	     37.41317386	      7.07967639	      0.00000000	      0.35014892	      1.07809752	     -1.43332853	      0.65026155	      1.43386971	     -1.52291156	      0.57525966	      2.62128632	     -1.52291156	      0.40018520	      2.62128632	     -1.25416246	      0.32514828	      2.19845647	     -1.16457943	      0.20007509	      1.66997306	     -1.07499639	      2.50107870	     12.19565481	     -7.97174326	      0.00000000	      0.00000000	     22.28148525	     -2.52471892	      0.86541842	     -9.70004980	    -17.83737087	     31.33692532	     20.60679177	     89.99559364	      0.00000000	      0.00000000	      2.24879539	     -9.60740012	     -4.12446217	     44.68218476	     89.99559364	      0.00000000	      0.00000000
      4.20000000	     -3.23360778	     -9.94417905	      7.61475191	     -0.46715124	      0.92767285	     -0.30407741	     18.83721334	     10.71565316	    -10.20782399	     10.29322735	      0.17965071	      2.98872402	     -6.98526436	      0.00000000	     -9.06337353	    -11.58810028	    -10.48451793	     21.12417950	      0.36868648	     37.84521783	      4.71262283	      0.00000000	      0.21649546	      1.12280729	     -1.55900499	      0.40205371	      1.49333370	     -1.65644280	      0.35568038	      2.72999364	     -1.65644280	      0.24743266	      2.72999364	     -1.36412936	      0.20103768	      2.28962863	     -1.26669155	      0.12370550	      1.73922849	     -1.16925374	      1.54640539	     12.70142062	     -8.67071803	      0.00000000	      0.00000000	     22.35553869	     -2.43845704	      1.31300172	     -9.62640668	    -18.12103334	     30.63641444	     20.77028752	     89.99559364	      0.00000000	      0.00000000	      1.94503220	     -9.13774616	     -5.60377621	     44.86358196	     89.99559364	      0.00000000	      0.00000000
      4.23333333	     -2.45993446	    -10.09404446	      7.78446050	     -0.43977917	      0.92914224	     -0.30221437	     16.68047991	     11.54471819	    -10.36133979	      9.84944273	      0.17190521	      3.40606933	     -6.52854223	      0.00000000	     -9.32693694	    -12.25657990	     -8.93524048	     23.62503171	      0.41233459	     37.56244554	      2.31765555	      0.00000000	      0.15518205	      1.15325603	     -1.65164823	      0.28818859	      1.53383052	     -1.75487624	      0.25494860	      2.80402672	     -1.75487624	      0.17735757	      2.80402672	     -1.44519220	      0.14410205	      2.35171970	     -1.34196419	      0.08867103	      1.78639360	     -1.23873617	      1.10844989	     13.04586290	     -9.18597196	      0.00000000	      0.00000000	     22.11335293	     -2.29512801	      2.06792521	     -9.53085503	    -18.48960563	     30.31688218	     21.03982665	     89.99559364	      0.00000000	      0.00000000	      1.04927221	     -8.63791564	     -7.04606587	     44.60058523	     89.99559364	      0.00000000	      0.00000000
      4.26666667	     -1.81289022	     -9.85398191	      7.69724611	     -0.41260515	      0.93112298	     -0.30018569	     14.35392611	     11.99505575	     -9.91477999	      9.55505942	      0.16676725	      4.35755797	     -6.19231373	      0.00000000	     -8.98556860	    -12.38569202	     -7.39818822	     26.49126225	      0.46235975	     36.41212285	     -0.57565307	      0.00000000	      0.10849338	      1.13792565	     -1.70367101	      0.20148306	      1.51344112	     -1.81015045	      0.17824378	      2.76675243	     -1.81015045	      0.12399709	      2.76675243	     -1.49071213	      0.10074695	      2.32045799	     -1.38423270	      0.06199312	      1.76264683	     -1.27775326	      0.77495738	     12.87244255	     -9.47530706	      0.00000000	      0.00000000	     21.79139664	     -1.97091865	      2.95759215	     -9.17720727	    -18.65410780	     29.96232268	     21.10723374	     89.99559364	      0.00000000	      0.00000000	     -0.19706817	     -8.25820545	     -8.42729887	     43.96925897	     89.99559364	      0.00000000	      0.00000000
      4.30000000	     -1.40508936	     -9.25194014	      7.24576976	     -0.38575271	      0.93338454	     -0.29794466	     12.04330495	     12.03800704	     -8.89673919	      9.37331944	      0.16359529	      5.65079721	     -5.93334424	      0.00000000	     -7.87228338	    -12.06832833	     -6.41106177	     29.69451583	      0.51826707	     34.50823650	     -3.33581617	      0.00000000	      0.09992209	      1.07971070	     -1.68485843	      0.18556531	      1.43601523	     -1.79016209	      0.16416200	      2.62520859	     -1.79016209	      0.11420096	      2.62520859	     -1.47425113	      0.09278765	      2.20174606	     -1.36894748	      0.05709548	      1.67247187	     -1.26364383	      0.71373349	     12.21390336	     -9.37067716	      0.00000000	      0.00000000	     21.23853318	     -1.65128811	      3.89294786	     -8.74522460	    -18.66889892	     29.43907196	     21.21999038	     89.99559364	      0.00000000	      0.00000000	     -1.70194929	     -8.04338786	     -9.47718146	     42.86821049	     89.99559364	      0.00000000	      0.00000000
